# xmcd
#
# Track frame offsets:
#	150
#	13315
#	30397
#	45035
#	57762
#	72247
#	83845
#	99312
#	111835
#	125125
#	141485
#	156582
#	168425
#	180907
#	191492
#	207135
#	223265
#	234142
#	246662
#	261587
#
# Disc length: 3705 seconds
#
# Revision: 0
# Processed by: cddbd v1.4PL0 Copyright (c) Steve Scherf et al.
# Submitted via: dBpowerAMP V4.0
#
DISCID=200e7714
DTITLE=Nestor da viola - Solos de viola caipira
DYEAR=1900
DGENRE=
TTITLE0=Boiadeiro errante
TTITLE1=Rainha do Paraná
TTITLE2=Lembrança
TTITLE3=Chico mulato
TTITLE4=Rei do café
TTITLE5=Saudades do matão
TTITLE6=A volta do boiadeiro
TTITLE7=Paineira véia
TTITLE8=A enxada e a caneta
TTITLE9=Sementinha
TTITLE10=Meu sertão
TTITLE11=Folias de reis
TTITLE12=Casinha pequeninha
TTITLE13=Cana verde
TTITLE14=Mãe amorosa
TTITLE15=Flor do cafezal
TTITLE16=Estrela da manhã
TTITLE17=Índia
TTITLE18=Relógio quebrado
TTITLE19=La paloma
EXTD=
EXTT0=
EXTT1=
EXTT2=
EXTT3=
EXTT4=
EXTT5=
EXTT6=
EXTT7=
EXTT8=
EXTT9=
EXTT10=
EXTT11=
EXTT12=
EXTT13=
EXTT14=
EXTT15=
EXTT16=
EXTT17=
EXTT18=
EXTT19=
PLAYORDER=
